# Blender v2.80 (sub 75) OBJ File: 'hexagonButton.blend'
# www.blender.org
mtllib hexagonButton.mtl
o Circle_Circle.001
v 0.000000 0.000000 -1.000000
v -0.866025 0.000000 -0.500000
v -0.866025 0.000000 0.500000
v 0.000000 0.000000 1.000000
v 0.866025 0.000000 0.500000
v 0.866025 0.000000 -0.500000
v 0.000000 0.356949 -1.000000
v -0.866025 0.356949 -0.500000
v -0.866025 0.356949 0.500000
v 0.000000 0.356949 1.000000
v 0.866025 0.356949 0.500000
v 0.866025 0.356949 -0.500000
vt 0.000000 0.000000
vt 0.000000 0.000000
vt 0.000000 0.000000
vt 0.000000 0.000000
vt 0.000000 0.000000
vt 0.000000 0.000000
vt 0.000000 0.000000
vt 0.000000 0.000000
vt 0.000000 0.000000
vt 0.000000 0.000000
vt 0.000000 0.000000
vt 0.000000 0.000000
vn 0.0000 -1.0000 0.0000
vn 1.0000 0.0000 0.0000
vn -0.5000 0.0000 0.8660
vn -0.5000 0.0000 -0.8660
vn 0.5000 0.0000 -0.8660
vn 0.5000 0.0000 0.8660
vn -1.0000 0.0000 0.0000
vn 0.0000 1.0000 -0.0000
usemtl Material.005
s off
f 2/1/1 1/2/1 6/3/1 5/4/1 4/5/1 3/6/1
f 5/4/2 6/3/2 12/7/2 11/8/2
f 3/6/3 4/5/3 10/9/3 9/10/3
f 1/2/4 2/1/4 8/11/4 7/12/4
f 6/3/5 1/2/5 7/12/5 12/7/5
f 4/5/6 5/4/6 11/8/6 10/9/6
f 2/1/7 3/6/7 9/10/7 8/11/7
usemtl Material.004
f 8/11/8 9/10/8 10/9/8 11/8/8 12/7/8 7/12/8